<svg width="94" height="35" viewBox="0 0 94 35" fill="none" xmlns="http://www.w3.org/2000/svg">
<g filter="url(#filter0_d_1_12)">
<path d="M11.706 0.545454L17.3984 19.1889H17.6097L23.3022 0.545454H30.1879L21.5994 26H13.4087L4.82031 0.545454H11.706ZM36.4284 26V0.545454H42.5808V10.7621H52.611V0.545454H58.7509V26H52.611V15.771H42.5808V26H36.4284ZM82.8146 8.86044C82.6738 8.33842 82.4666 7.87855 82.1932 7.48082C81.9197 7.07481 81.5842 6.73094 81.1864 6.44922C80.7887 6.1675 80.333 5.9562 79.8192 5.81534C79.3055 5.66619 78.7421 5.59162 78.1289 5.59162C76.8943 5.59162 75.8254 5.88991 74.9222 6.4865C74.0273 7.0831 73.3355 7.95312 72.8466 9.09659C72.3577 10.2318 72.1133 11.6114 72.1133 13.2354C72.1133 14.8678 72.3494 16.2598 72.8217 17.4116C73.294 18.5633 73.9776 19.4416 74.8725 20.0465C75.7674 20.6514 76.8529 20.9538 78.1289 20.9538C79.2558 20.9538 80.2087 20.7715 80.9876 20.407C81.7747 20.0341 82.3713 19.5079 82.7773 18.8285C83.1834 18.149 83.3864 17.3494 83.3864 16.4297L84.5298 16.5664H78.3402V12.0795H89.315V15.4478C89.315 17.7264 88.8303 19.6778 87.8608 21.3018C86.8996 22.9259 85.5739 24.1729 83.8835 25.043C82.2015 25.913 80.2667 26.348 78.0792 26.348C75.6514 26.348 73.5178 25.8219 71.6783 24.7695C69.8388 23.7172 68.4053 22.2174 67.3778 20.2702C66.3504 18.3147 65.8366 15.9947 65.8366 13.31C65.8366 11.2219 66.1474 9.37003 66.7688 7.75426C67.3903 6.13021 68.2562 4.75473 69.3665 3.62784C70.4851 2.50095 71.7777 1.64749 73.2443 1.06747C74.7192 0.487452 76.306 0.197442 78.0046 0.197442C79.4795 0.197442 80.8509 0.408735 82.1186 0.831321C83.3947 1.25391 84.5215 1.8505 85.4993 2.62109C86.4853 3.39169 87.2849 4.30729 87.8981 5.3679C88.5112 6.4285 88.8924 7.59268 89.0415 8.86044H82.8146Z" fill="#10F93B"/>
</g>
<defs>
<filter id="filter0_d_1_12" x="0.820312" y="0.197449" width="92.4946" height="34.1506" filterUnits="userSpaceOnUse" color-interpolation-filters="sRGB">
<feFlood flood-opacity="0" result="BackgroundImageFix"/>
<feColorMatrix in="SourceAlpha" type="matrix" values="0 0 0 0 0 0 0 0 0 0 0 0 0 0 0 0 0 0 127 0" result="hardAlpha"/>
<feOffset dy="4"/>
<feGaussianBlur stdDeviation="2"/>
<feComposite in2="hardAlpha" operator="out"/>
<feColorMatrix type="matrix" values="0 0 0 0 0 0 0 0 0 0 0 0 0 0 0 0 0 0 0.25 0"/>
<feBlend mode="normal" in2="BackgroundImageFix" result="effect1_dropShadow_1_12"/>
<feBlend mode="normal" in="SourceGraphic" in2="effect1_dropShadow_1_12" result="shape"/>
</filter>
</defs>
</svg>
